HIERARCHY
ROOT Hips
{
	OFFSET 0.000000 0.000000 0.000000
	CHANNELS 6 Xposition Yposition Zposition Zrotation Yrotation Xrotation 
	JOINT LHipJoint
	{
		OFFSET 0.000000 0.000000 0.000000
		CHANNELS 3 Zrotation Yrotation Xrotation
		JOINT LeftUpLeg
		{
			OFFSET 1.363060 -1.794630 0.839290
			CHANNELS 3 Zrotation Yrotation Xrotation
			JOINT LeftLeg
			{
				OFFSET 2.448110 -6.726130 0.000000
				CHANNELS 3 Zrotation Yrotation Xrotation
				JOINT LeftFoot
				{
					OFFSET 2.562200 -7.039590 0.000000
					CHANNELS 3 Zrotation Yrotation Xrotation
					JOINT LeftToeBase
					{
						OFFSET 0.157640 -0.433110 2.322550
						CHANNELS 3 Zrotation Yrotation Xrotation
						End Site
						{
							OFFSET 0.000000 0.000000 0.000000
						}
					}
				}
			}
		}
	}
	JOINT RHipJoint
	{
		OFFSET 0.000000 0.000000 0.000000
		CHANNELS 3 Zrotation Yrotation Xrotation
		JOINT RightUpLeg
		{
			OFFSET -1.305520 -1.794630 0.839290
			CHANNELS 3 Zrotation Yrotation Xrotation
			JOINT RightLeg
			{
				OFFSET -2.542530 -6.985550 0.000000
				CHANNELS 3 Zrotation Yrotation Xrotation
				JOINT RightFoot
				{
					OFFSET -2.568260 -7.056230 0.000000
					CHANNELS 3 Zrotation Yrotation Xrotation
					JOINT RightToeBase
					{
						OFFSET -0.164730 -0.452590 2.363150
						CHANNELS 3 Zrotation Yrotation Xrotation
						End Site
						{
							OFFSET 0.000000 0.000000 0.000000
						}
					}
				}
			}
		}
	}
	JOINT LowerBack
	{
		OFFSET 0.000000 0.000000 0.000000
		CHANNELS 3 Zrotation Yrotation Xrotation
		JOINT Spine
		{
			OFFSET 0.028270 2.035590 -0.193380
			CHANNELS 3 Zrotation Yrotation Xrotation
			JOINT Spine1
			{
				OFFSET 0.056720 2.048850 -0.042750
				CHANNELS 3 Zrotation Yrotation Xrotation
				JOINT Neck
				{
					OFFSET 0.000000 0.000000 0.000000
					CHANNELS 3 Zrotation Yrotation Xrotation
					JOINT Neck1
					{
						OFFSET -0.054170 1.746240 0.172020
						CHANNELS 3 Zrotation Yrotation Xrotation
						JOINT Head
						{
							OFFSET 0.104070 1.761360 -0.123970
							CHANNELS 3 Zrotation Yrotation Xrotation
							End Site
							{
								OFFSET 0.000000 0.000000 0.000000
							}
						}
					}
				}
				JOINT LeftShoulder
				{
					OFFSET 0.000000 0.000000 0.000000
					CHANNELS 3 Zrotation Yrotation Xrotation
					JOINT LeftArm
					{
						OFFSET 3.362410 1.200890 -0.311210
						CHANNELS 3 Zrotation Yrotation Xrotation
						JOINT LeftForeArm
						{
							OFFSET 4.983000 -0.000000 -0.000000
							CHANNELS 3 Zrotation Yrotation Xrotation
							JOINT LeftHand
							{
								OFFSET 3.483560 -0.000000 -0.000000
								CHANNELS 3 Zrotation Yrotation Xrotation
								JOINT LeftFingerBase
								{
									OFFSET 0.000000 0.000000 0.000000
									CHANNELS 3 Zrotation Yrotation Xrotation
									JOINT LeftHandIndex1
									{
										OFFSET 0.715260 -0.000000 -0.000000
										CHANNELS 3 Zrotation Yrotation Xrotation
										End Site
										{
											OFFSET 0.000000 0.000000 0.000000
										}
									}
								}
								JOINT LThumb
								{
									OFFSET 0.000000 0.000000 0.000000
									CHANNELS 3 Zrotation Yrotation Xrotation
									End Site
									{
										OFFSET 0.000000 0.000000 0.000000
									}
								}
							}
						}
					}
				}
				JOINT RightShoulder
				{
					OFFSET 0.000000 0.000000 0.000000
					CHANNELS 3 Zrotation Yrotation Xrotation
					JOINT RightArm
					{
						OFFSET -3.136600 1.374050 -0.404650
						CHANNELS 3 Zrotation Yrotation Xrotation
						JOINT RightForeArm
						{
							OFFSET -5.241900 -0.000000 -0.000000
							CHANNELS 3 Zrotation Yrotation Xrotation
							JOINT RightHand
							{
								OFFSET -3.444170 -0.000000 -0.000000
								CHANNELS 3 Zrotation Yrotation Xrotation
								JOINT RightFingerBase
								{
									OFFSET 0.000000 0.000000 0.000000
									CHANNELS 3 Zrotation Yrotation Xrotation
									JOINT RightHandIndex1
									{
										OFFSET -0.622530 -0.000000 -0.000000
										CHANNELS 3 Zrotation Yrotation Xrotation
										End Site
										{
											OFFSET 0.000000 0.000000 0.000000
										}
									}
								}
								JOINT RThumb
								{
									OFFSET 0.000000 0.000000 0.000000
									CHANNELS 3 Zrotation Yrotation Xrotation
									End Site
									{
										OFFSET 0.000000 0.000000 0.000000
									}
								}
							}
						}
					}
				}
			}
		}
	}
}
MOTION
Frames: 5
Frame Time: 0.008333
-6.439169 16.287896 -0.799055 161.301586 88.621605 -178.960673 -10.669822 3.083141 -1.509930 -8.774324 -2.174636 6.582788 -0.913263 1.571501 21.658404 0.398463 0.925348 8.684276 0.256700 -0.000000 -88.011900 8.604929 1.231501 2.257070 -0.721576 4.207990 -49.089843 2.190219 -1.177036 16.023194 0.812894 5.050686 11.419963 1.243001 -0.000000 -61.760100 7.397287 -3.774560 1.704151 0.321199 -4.255969 -2.049849 -8.831007 -4.198342 1.873964 10.604928 -7.591309 -6.095688 -4.592751 -0.345214 0.252938 0.000000 0.000000 0.000000 1.109245 3.601908 3.404514 -24.094739 -21.414673 15.333347 -0.513903 -81.473533 0.057158 -14.209297 -1.082133 0.167092 0.149033 0.245302 0.000000 0.000000 0.000000 0.000000 0.000000 0.000000 0.000000 21.461423 -7.441845 1.359337 58.496924 0.104535 -8.281407 3.549142 29.365386 0.022022 2.906990 12.358803 0.309374 0.077726 -0.086080 -0.000000 0.000000 0.000000 0.000000 0.000000 0.000000 0.000000 
-6.187053 16.265361 -0.818920 22.204639 89.731057 42.041662 -11.459565 3.638168 -1.390359 -8.269280 -1.506409 5.200903 -0.853903 1.941459 24.269006 0.611506 1.617603 10.481941 0.363700 0.000000 -88.017100 8.308589 1.576377 1.886720 0.046465 4.797146 -49.729202 2.052376 -1.353563 19.354158 0.854772 5.037401 11.943130 1.229500 -0.000000 -60.129801 7.764822 -3.268442 1.858436 0.283065 -3.791784 -2.076150 -8.874795 -3.737387 1.783143 10.398166 -7.039053 -6.038478 -4.659144 -0.349268 0.264273 0.000000 0.000000 0.000000 0.810953 4.075313 3.372755 -24.348712 -20.608391 15.558509 -0.523812 -81.657207 0.055534 -14.242949 -1.143234 0.174184 0.143575 0.238403 -0.000000 0.000000 0.000000 0.000000 0.000000 0.000000 0.000000 21.469207 -6.661413 1.432162 58.547310 0.475159 -9.109206 3.615639 27.985999 0.022241 2.760859 12.341784 0.292874 0.079517 -0.087612 -0.000000 0.000000 0.000000 0.000000 0.000000 0.000000 0.000000 
-5.938970 16.249823 -0.840191 38.238500 89.800861 58.091312 -12.268718 3.625217 -1.349571 -7.553008 -0.950040 3.813750 -0.540441 2.103218 27.276260 0.804371 2.421939 12.361320 0.564300 0.000000 -86.644200 7.760264 1.329203 1.710079 0.657328 4.935678 -50.235259 1.934128 -1.594398 22.329816 0.829377 4.883854 11.862810 1.167999 0.000000 -58.685900 8.188781 -3.212338 1.922839 0.360676 -3.759981 -2.101888 -8.869131 -3.713129 1.720889 10.199857 -6.422326 -5.921084 -4.724214 -0.354020 0.291504 0.000000 0.000000 0.000000 0.547784 4.250395 3.418054 -24.770458 -19.850304 15.916138 -0.543020 -81.717192 0.054370 -14.282712 -1.205070 0.181808 0.136398 0.232864 -0.000000 0.000000 0.000000 0.000000 0.000000 0.000000 0.000000 21.459391 -6.036250 1.463248 58.606701 0.815370 -10.010676 3.651617 26.560446 0.021858 2.613161 12.315050 0.276259 0.079070 -0.087572 -0.000000 0.000000 0.000000 0.000000 0.000000 0.000000 0.000000 
-5.695357 16.241849 -0.862401 -135.293149 89.762383 -115.423338 -12.835969 3.532483 -1.358344 -6.699918 -0.313128 2.275703 -0.228728 2.226702 30.462081 1.026491 3.472789 14.122306 0.885600 -0.000000 -83.757100 7.405986 1.102462 1.580507 1.381385 5.035497 -50.555937 1.848862 -1.811777 24.952117 0.779322 4.637869 11.298498 1.049500 -0.000000 -57.626201 8.901624 -3.164698 1.996049 0.504191 -3.744634 -2.123497 -8.870392 -3.706649 1.651423 10.001786 -5.757642 -5.774141 -4.790052 -0.358952 0.326129 0.000000 0.000000 0.000000 0.297601 4.398273 3.470771 -25.323161 -19.120134 16.384335 -0.571682 -81.656504 0.053235 -14.323857 -1.270088 0.189745 0.128440 0.227238 0.000000 0.000000 0.000000 0.000000 0.000000 0.000000 0.000000 21.435400 -5.380905 1.487760 58.681217 1.203135 -10.965997 3.682794 25.082159 0.021425 2.469222 12.280551 0.259943 0.078376 -0.087696 -0.000000 0.000000 0.000000 0.000000 0.000000 0.000000 0.000000 
-5.456634 16.241721 -0.884431 -132.745922 89.230136 -112.848344 -13.302259 3.414309 -1.393603 -5.838436 0.409754 0.572091 0.042209 2.334429 33.753312 1.275345 4.801175 15.623877 1.349400 -0.000001 -79.357100 7.139059 0.917875 1.464594 2.140217 5.105668 -50.684759 1.795949 -1.981326 27.213327 0.720518 4.327625 10.310214 0.884500 0.000000 -57.044600 9.663794 -3.093690 2.081337 0.654675 -3.706600 -2.141777 -8.874504 -3.677698 1.580533 9.818730 -5.065502 -5.608546 -4.855611 -0.363821 0.365258 0.000000 0.000000 0.000000 0.066032 4.546578 3.520082 -25.967208 -18.444636 16.961157 -0.610207 -81.462251 0.052000 -14.365023 -1.335457 0.197791 0.119963 0.221058 0.000000 0.000000 0.000000 0.000000 0.000000 0.000000 0.000000 21.423632 -4.698817 1.508418 58.774194 1.652179 -11.963778 3.707993 23.567828 0.020959 2.327676 12.243444 0.243926 0.077472 -0.088129 -0.000000 0.000000 0.000000 0.000000 0.000000 0.000000 0.000000 
